<svg width="13" height="13" viewBox="0 0 13 13" fill="none" xmlns="http://www.w3.org/2000/svg">
<g clip-path="url(#clip0_1_53)">
<path d="M12.5908 0C8.52901 0 4.46725 0 0.405836 0C0.157448 0 0.0756702 0.0590415 0 0.291136V11.9345C0.0220563 12.0906 0.109942 12.1928 0.256193 12.2471C0.320665 12.2708 0.387513 12.2756 0.455039 12.2756C0.694944 12.2756 0.934849 12.2756 1.17475 12.2756C1.37564 12.2756 1.47936 12.3745 1.48592 12.5725C1.49372 12.8073 1.58263 12.9277 1.80115 13H2.00407C2.2209 12.943 2.3115 12.8307 2.32168 12.6057C2.32406 12.5507 2.32304 12.4958 2.32304 12.4408V9.49924C2.32304 9.46531 2.3227 9.43172 2.32304 9.39779C2.3244 9.21625 2.32949 9.21048 2.5056 9.20947C2.58161 9.20947 2.65796 9.20947 2.73397 9.20947C3.01731 9.21116 3.00407 9.1847 3.00407 9.47583C3.00441 10.4941 3.00305 11.5128 3.00475 12.5314C3.00543 12.8113 3.1018 12.9386 3.34849 13H3.52596C3.75263 12.9406 3.83543 12.8351 3.84425 12.5945C3.84628 12.5399 3.84527 12.4849 3.84527 12.4299C3.84527 11.4279 3.84493 10.4259 3.84527 9.42391C3.84527 9.28117 3.91833 9.2098 4.06447 9.2098C4.56328 9.2098 5.0621 9.20641 5.56091 9.21184C5.71496 9.2132 5.90872 9.14296 6.01289 9.24883C6.1113 9.34893 6.04581 9.53996 6.04615 9.69028C6.04954 10.6373 6.04649 11.5844 6.04852 12.5314C6.0492 12.8113 6.14557 12.9382 6.39226 13H6.56973C6.79878 12.9423 6.88327 12.8364 6.88938 12.5989C6.89074 12.548 6.88938 12.4975 6.89006 12.4466C6.89277 12.2932 6.90295 12.2834 7.05735 12.28C7.09942 12.2793 7.14184 12.28 7.18426 12.28C8.80692 12.28 10.4299 12.28 12.0529 12.2796C12.2219 12.2796 12.3912 12.284 12.5602 12.2779C12.849 12.2677 12.9997 12.1103 12.9997 11.8209C13 8.01676 13 4.21299 12.9997 0.40888C12.9997 0.120458 12.8789 0 12.5908 0ZM12.2284 11.3319C12.2284 11.4435 12.206 11.4782 12.0869 11.4778C10.3875 11.4734 8.68816 11.4734 6.9888 11.4778C6.87343 11.4782 6.85137 11.4466 6.85205 11.3377C6.8568 10.5091 6.85477 9.68044 6.85443 8.85182C6.85443 8.53558 6.71632 8.39781 6.39871 8.39747C4.92738 8.39713 3.4564 8.39747 1.98541 8.39747C1.66373 8.39781 1.52358 8.53897 1.52358 8.86098C1.52324 9.69367 1.52155 10.5264 1.52562 11.3594C1.5263 11.4541 1.50356 11.4815 1.40787 11.4771C1.22633 11.4687 1.04411 11.4697 0.862572 11.4768C0.775704 11.4802 0.748897 11.45 0.761452 11.3699C0.763488 11.3577 0.761792 11.3448 0.761792 11.3319C0.761792 7.85694 0.762131 4.38197 0.759077 0.90734C0.759077 0.797061 0.782491 0.769916 0.894808 0.770255C2.76315 0.774327 4.63183 0.773309 6.50017 0.773309C8.36851 0.773309 10.2287 0.774327 12.093 0.770255C12.2053 0.769916 12.2287 0.7974 12.2287 0.90734C12.2253 4.38231 12.2253 7.85728 12.2284 11.3319Z" fill="#737E97"/>
<path d="M10.9732 1.5351H1.96843C1.67321 1.5351 1.52357 1.68406 1.52357 1.97825C1.52323 3.69893 1.52323 5.41962 1.52357 7.14031C1.52357 7.44129 1.67253 7.59025 1.97623 7.59025C4.97793 7.59059 7.97963 7.59059 10.981 7.59025C11.2925 7.59025 11.4387 7.44298 11.4387 7.13217C11.4391 5.41996 11.4387 3.70776 11.4387 1.99555C11.4387 1.67659 11.2955 1.5351 10.9732 1.5351ZM10.55 6.82915C9.19306 6.82678 7.83609 6.82746 6.47946 6.82746C5.12282 6.82746 3.77399 6.82576 2.42109 6.83017C2.31081 6.83051 2.28163 6.80608 2.28197 6.69241C2.28672 5.26795 2.28604 3.84348 2.28299 2.41868C2.28265 2.32164 2.30402 2.29347 2.40582 2.29347C5.12384 2.29687 7.84186 2.29653 10.5599 2.29415C10.6515 2.29381 10.68 2.31112 10.6797 2.40952C10.6759 3.84247 10.6756 5.27575 10.68 6.7087C10.68 6.81728 10.6413 6.82915 10.55 6.82915Z" fill="#737E97"/>
<path d="M8.39873 10.3027C8.39737 10.5101 8.22635 10.6821 8.02105 10.6834C7.81305 10.6845 7.6332 10.5019 7.63727 10.2936C7.64135 10.0852 7.81169 9.92303 8.02411 9.92507C8.23653 9.9271 8.40008 10.092 8.39873 10.3031V10.3027Z" fill="#737E97"/>
<path d="M8.39875 8.78024C8.39672 8.9879 8.22603 9.15858 8.01972 9.15858C7.80968 9.15858 7.63255 8.97806 7.6373 8.7687C7.64205 8.56104 7.81341 8.3985 8.02515 8.40122C8.23723 8.40359 8.40045 8.56952 8.39875 8.78058V8.78024Z" fill="#737E97"/>
<path d="M11.4469 10.3024C11.4455 10.5108 11.2762 10.6818 11.0703 10.6835C10.8626 10.6848 10.6814 10.5019 10.6851 10.2943C10.6892 10.0863 10.8599 9.92306 11.0719 9.92476C11.2844 9.92645 11.4483 10.0914 11.4469 10.3024Z" fill="#737E97"/>
<path d="M11.4469 8.78089C11.4445 8.98957 11.2745 9.15889 11.0679 9.15855C10.8582 9.15821 10.6797 8.976 10.6854 8.76833C10.6912 8.55999 10.8622 8.39814 11.0743 8.40085C11.2867 8.40357 11.4496 8.56983 11.4472 8.78089H11.4469Z" fill="#737E97"/>
<path d="M9.53747 9.92508C9.75159 9.92237 9.91922 10.0822 9.92227 10.2922C9.92532 10.5067 9.75396 10.6838 9.54324 10.6835C9.33964 10.6831 9.16421 10.5091 9.16082 10.3044C9.15742 10.0981 9.32675 9.9278 9.53747 9.92508Z" fill="#737E97"/>
<path d="M9.92224 8.77007C9.92461 8.98452 9.75257 9.15995 9.54151 9.15859C9.33656 9.15723 9.16282 8.98418 9.16078 8.77923C9.15875 8.57293 9.32807 8.40361 9.53914 8.40157C9.75291 8.39953 9.9202 8.56037 9.92258 8.77041L9.92224 8.77007Z" fill="#737E97"/>
<path d="M9.11135 4.83595C9.02482 5.13829 8.93999 5.4413 8.85176 5.74295C8.80324 5.90956 8.68312 6.01203 8.53144 6.02493C8.34515 6.04054 8.19991 5.94247 8.14155 5.75313C8.05502 5.4715 7.97324 5.18817 7.88943 4.90552C7.88366 4.88583 7.88434 4.8631 7.84905 4.84851C7.79577 5.13693 7.7442 5.42332 7.6899 5.70902C7.64817 5.92856 7.50463 6.03782 7.31054 6.00253C7.12492 5.96894 7.03093 5.80641 7.07063 5.58619C7.19041 4.92214 7.30952 4.25809 7.43032 3.59439C7.46629 3.39724 7.59625 3.27475 7.77474 3.26355C7.94678 3.25269 8.09404 3.36331 8.15241 3.55672C8.26337 3.92352 8.37026 4.29135 8.4819 4.66867C8.53653 4.59029 8.54399 4.50274 8.56775 4.423C8.6502 4.14442 8.72587 3.8638 8.80562 3.58454C8.86568 3.37417 9.00955 3.25439 9.18906 3.26355C9.37501 3.27305 9.4992 3.39487 9.54162 3.61542C9.66921 4.27777 9.79645 4.94013 9.92133 5.60316C9.96001 5.80844 9.86398 5.96555 9.68821 6.00152C9.49479 6.04122 9.3465 5.93569 9.30137 5.71751C9.24097 5.42467 9.18634 5.13082 9.12933 4.83765C9.12323 4.83731 9.11712 4.83663 9.11101 4.83629L9.11135 4.83595Z" fill="#737E97"/>
<path d="M5.31145 5.55906C5.05832 4.88551 4.80382 4.2123 4.54865 3.53977C4.4801 3.35925 4.35692 3.26424 4.19608 3.26254C4.03219 3.26051 3.90494 3.35891 3.83334 3.5452C3.75903 3.73759 3.68607 3.93032 3.61312 4.12306C3.4292 4.60693 3.24359 5.09012 3.06205 5.575C2.99011 5.76706 3.06103 5.93536 3.23341 6.0039C3.39527 6.06837 3.59615 6.00322 3.63483 5.8278C3.69863 5.53836 3.86931 5.47999 4.12211 5.52275C4.14281 5.52614 4.16419 5.52309 4.18556 5.52309H4.35014C4.52885 5.52309 4.65078 5.60724 4.71593 5.77554C4.79703 5.98422 4.96025 6.07414 5.1384 6.0073C5.31858 5.93977 5.38848 5.764 5.31145 5.55906ZM4.29551 4.89094C3.9952 4.90383 3.99554 4.90654 4.10243 4.62627C4.12924 4.55671 4.15536 4.48681 4.19269 4.38942C4.25004 4.54313 4.29619 4.67309 4.34776 4.80034C4.37219 4.8604 4.37694 4.88754 4.29551 4.89094Z" fill="#737E97"/>
<path d="M5.74756 4.83972C5.74756 4.57369 5.73975 4.30733 5.75095 4.04198C5.75638 3.91372 5.71362 3.87707 5.59588 3.89573C5.55889 3.9015 5.51987 3.89743 5.4822 3.89607C5.29727 3.88929 5.16697 3.76374 5.16222 3.58831C5.1578 3.41187 5.29184 3.26765 5.48017 3.26426C5.7842 3.25849 6.08824 3.26256 6.39194 3.26256C6.4805 3.26256 6.56941 3.25883 6.65797 3.26392C6.83951 3.27444 6.97253 3.41051 6.97287 3.58017C6.97287 3.75594 6.8351 3.88963 6.64678 3.89641C6.471 3.90252 6.38312 3.99357 6.38312 4.16957C6.38312 4.66769 6.38447 5.16615 6.38244 5.66427C6.38142 5.87261 6.27351 6.00664 6.10181 6.02462C5.905 6.04498 5.75366 5.91231 5.74959 5.70125C5.74382 5.41419 5.74823 5.12712 5.74823 4.84006H5.7479L5.74756 4.83972Z" fill="#737E97"/>
</g>
<defs>
<clipPath id="clip0_1_53">
<rect width="13" height="13" fill="white"/>
</clipPath>
</defs>
</svg>
