<svg width="14" height="14" viewBox="0 0 14 14" fill="none" xmlns="http://www.w3.org/2000/svg">
<path d="M3.27601 11.6666C3.01662 11.6666 2.79476 11.5743 2.61043 11.3896C2.42609 11.2048 2.33373 10.9834 2.33334 10.7251V3.2754C2.33334 3.0164 2.4257 2.79473 2.61043 2.6104C2.79515 2.42606 3.01682 2.3337 3.27543 2.33331H5.76626C6.02526 2.33331 6.24693 2.42567 6.43126 2.6104C6.61559 2.79512 6.70795 3.01679 6.70834 3.2754V10.7246C6.70834 10.9836 6.61598 11.2052 6.43126 11.3896C6.24654 11.5739 6.02487 11.6663 5.76626 11.6666H3.27601ZM8.23434 11.6666C7.97495 11.6666 7.75309 11.5743 7.56876 11.3896C7.38443 11.2048 7.29207 10.9832 7.29168 10.7246V7.94206C7.29168 7.68306 7.38404 7.4614 7.56876 7.27706C7.75348 7.09273 7.97515 7.00037 8.23376 6.99998H10.7246C10.9836 6.99998 11.2053 7.09234 11.3896 7.27706C11.5739 7.46179 11.6663 7.68345 11.6667 7.94206V10.7246C11.6667 10.9836 11.5743 11.2052 11.3896 11.3896C11.2049 11.5739 10.9832 11.6663 10.7246 11.6666H8.23434ZM8.23434 6.41665C7.97495 6.41665 7.75309 6.32428 7.56876 6.13956C7.38443 5.95484 7.29207 5.73317 7.29168 5.47456V3.2754C7.29168 3.0164 7.38404 2.79473 7.56876 2.6104C7.75348 2.42606 7.97515 2.3337 8.23376 2.33331H10.7246C10.9836 2.33331 11.2053 2.42567 11.3896 2.6104C11.5739 2.79512 11.6663 3.01679 11.6667 3.2754V5.47456C11.6667 5.73356 11.5743 5.95523 11.3896 6.13956C11.2049 6.3239 10.9832 6.41626 10.7246 6.41665H8.23434Z" fill="white"/>
</svg>
