<svg width="16" height="16" viewBox="0 0 16 16" fill="none" xmlns="http://www.w3.org/2000/svg">
<path d="M8 3.70733L3.33333 7.44067V12.6667H6.66667V10H9.33333V12.6667H12.6667V7.76133C12.6667 7.66136 12.6443 7.56265 12.601 7.47252C12.5577 7.38239 12.4947 7.30315 12.4167 7.24067L8 3.70733ZM8 2L13.2493 6.2C13.4834 6.38725 13.6724 6.62473 13.8023 6.89487C13.9323 7.16501 13.9998 7.4609 14 7.76067V12.6667C14 13.0203 13.8595 13.3594 13.6095 13.6095C13.3594 13.8595 13.0203 14 12.6667 14H3.33333C2.97971 14 2.64057 13.8595 2.39052 13.6095C2.14048 13.3594 2 13.0203 2 12.6667V7.44067C2.00002 7.24082 2.04497 7.04354 2.13152 6.86341C2.21807 6.68328 2.344 6.5249 2.5 6.4L8 2Z" fill="#55C72C"/>
</svg>
