<svg width="13" height="13" viewBox="0 0 13 13" fill="none" xmlns="http://www.w3.org/2000/svg">
<path d="M1.21875 3.75781C1.21875 3.4775 1.44625 3.25 1.72656 3.25H11.2734C11.4081 3.25 11.5373 3.3035 11.6325 3.39873C11.7277 3.49397 11.7812 3.62313 11.7812 3.75781C11.7812 3.89249 11.7277 4.02166 11.6325 4.11689C11.5373 4.21212 11.4081 4.26562 11.2734 4.26562H1.72656C1.44625 4.26562 1.21875 4.03812 1.21875 3.75781ZM2.84375 6.60156C2.84375 6.32125 3.07125 6.09375 3.35156 6.09375H9.64844C9.78312 6.09375 9.91228 6.14725 10.0075 6.24248C10.1027 6.33772 10.1562 6.46688 10.1562 6.60156C10.1562 6.73624 10.1027 6.86541 10.0075 6.96064C9.91228 7.05587 9.78312 7.10938 9.64844 7.10938H3.35156C3.07125 7.10938 2.84375 6.88188 2.84375 6.60156ZM4.97656 8.9375C4.84188 8.9375 4.71272 8.991 4.61748 9.08623C4.52225 9.18147 4.46875 9.31063 4.46875 9.44531C4.46875 9.57999 4.52225 9.70916 4.61748 9.80439C4.71272 9.89962 4.84188 9.95312 4.97656 9.95312H8.02344C8.15812 9.95312 8.28728 9.89962 8.38252 9.80439C8.47775 9.70916 8.53125 9.57999 8.53125 9.44531C8.53125 9.31063 8.47775 9.18147 8.38252 9.08623C8.28728 8.991 8.15812 8.9375 8.02344 8.9375H4.97656Z" fill="#ABB2C0"/>
</svg>
