<svg width="17" height="17" viewBox="0 0 17 17" fill="none" xmlns="http://www.w3.org/2000/svg">
<path d="M14.3438 3.1875V5.84375H9.03125V3.1875H14.3438ZM14.3438 2.125H9.03125C8.74946 2.125 8.47921 2.23694 8.27995 2.4362C8.08069 2.63546 7.96875 2.90571 7.96875 3.1875V5.84375C7.96875 6.12554 8.08069 6.39579 8.27995 6.59505C8.47921 6.79431 8.74946 6.90625 9.03125 6.90625H14.3438C14.6255 6.90625 14.8958 6.79431 15.0951 6.59505C15.2943 6.39579 15.4062 6.12554 15.4062 5.84375V3.1875C15.4062 2.90571 15.2943 2.63546 15.0951 2.4362C14.8958 2.23694 14.6255 2.125 14.3438 2.125ZM6.375 13.2812H3.1875V9.03125H6.375V7.96875H3.1875C2.90571 7.96875 2.63546 8.08069 2.4362 8.27995C2.23694 8.47921 2.125 8.74946 2.125 9.03125V13.2812C2.125 13.563 2.23694 13.8333 2.4362 14.0326C2.63546 14.2318 2.90571 14.3438 3.1875 14.3438H6.375V13.2812ZM15.9375 10.625H8.93987L10.3137 9.25119L9.5625 8.5L6.90625 11.1562L9.5625 13.8125L10.3137 13.0613L8.93987 11.6875H15.9375V10.625ZM5.84375 3.1875V5.84375H3.1875V3.1875H5.84375ZM5.84375 2.125H3.1875C2.90571 2.125 2.63546 2.23694 2.4362 2.4362C2.23694 2.63546 2.125 2.90571 2.125 3.1875V5.84375C2.125 6.12554 2.23694 6.39579 2.4362 6.59505C2.63546 6.79431 2.90571 6.90625 3.1875 6.90625H5.84375C6.12554 6.90625 6.39579 6.79431 6.59505 6.59505C6.79431 6.39579 6.90625 6.12554 6.90625 5.84375V3.1875C6.90625 2.90571 6.79431 2.63546 6.59505 2.4362C6.39579 2.23694 6.12554 2.125 5.84375 2.125Z" fill="#737E97"/>
</svg>
