<svg width="17" height="17" viewBox="0 0 17 17" fill="none" xmlns="http://www.w3.org/2000/svg">
<path d="M8.49998 10.5754C8.0895 10.5754 7.68824 10.4537 7.34694 10.2256C7.00564 9.99757 6.73963 9.67344 6.58254 9.29421C6.42546 8.91497 6.38436 8.49768 6.46444 8.09508C6.54452 7.69249 6.74218 7.32269 7.03244 7.03244C7.32269 6.74218 7.69249 6.54452 8.09508 6.46444C8.49768 6.38436 8.91497 6.42546 9.29421 6.58254C9.67344 6.73963 9.99757 7.00564 10.2256 7.34694C10.4537 7.68824 10.5754 8.0895 10.5754 8.49998C10.5754 9.05041 10.3567 9.5783 9.96752 9.96752C9.5783 10.3567 9.05041 10.5754 8.49998 10.5754ZM8.49998 7.48706C8.29964 7.48706 8.10381 7.54647 7.93723 7.65777C7.77066 7.76907 7.64083 7.92727 7.56417 8.11235C7.4875 8.29744 7.46744 8.5011 7.50652 8.69759C7.54561 8.89408 7.64208 9.07456 7.78374 9.21622C7.9254 9.35788 8.10588 9.45435 8.30237 9.49343C8.49885 9.53252 8.70252 9.51246 8.8876 9.43579C9.07269 9.35913 9.23089 9.2293 9.34219 9.06272C9.45349 8.89615 9.5129 8.70031 9.5129 8.49998C9.5129 8.23134 9.40618 7.9737 9.21622 7.78374C9.02626 7.59378 8.76862 7.48706 8.49998 7.48706Z" fill="#737E97"/>
<path d="M8.54248 14.6979C8.33537 14.697 8.13049 14.6551 7.9396 14.5748C7.7487 14.4945 7.57556 14.3772 7.4301 14.2298C7.28464 14.0824 7.16974 13.9077 7.092 13.7157C7.01425 13.5238 6.97519 13.3183 6.97706 13.1112C6.97426 13.0473 6.95351 12.9855 6.91717 12.9329C6.88083 12.8803 6.8304 12.839 6.77164 12.8137C6.70664 12.7839 6.63425 12.774 6.56363 12.7854C6.49301 12.7967 6.42736 12.8288 6.37498 12.8775C6.08089 13.1693 5.6843 13.3346 5.26998 13.3379C4.85304 13.3406 4.45152 13.1805 4.15081 12.8916C4.00474 12.7456 3.88887 12.5722 3.80982 12.3814C3.73077 12.1906 3.69008 11.9861 3.69008 11.7796C3.69008 11.573 3.73077 11.3685 3.80982 11.1777C3.88887 10.9869 4.00474 10.8135 4.15081 10.6675C4.20076 10.6219 4.23665 10.5631 4.25422 10.4978C4.27179 10.4325 4.27032 10.3636 4.24998 10.2991C4.21546 10.2394 4.16594 10.1896 4.10631 10.1548C4.04668 10.12 3.97901 10.1014 3.90998 10.1008C3.49321 10.0992 3.09336 9.93578 2.79472 9.64507C2.49609 9.35436 2.32199 8.95905 2.30914 8.54248C2.31007 8.33598 2.35166 8.13168 2.43155 7.94125C2.51143 7.75082 2.62804 7.57799 2.77472 7.43262C2.9214 7.28726 3.09527 7.17221 3.28642 7.09405C3.47756 7.01588 3.68222 6.97613 3.88873 6.97706C3.95261 6.97427 4.01442 6.95351 4.06704 6.91717C4.11967 6.88084 4.16097 6.8304 4.18623 6.77165C4.21606 6.70664 4.22593 6.63425 4.21458 6.56363C4.20323 6.49302 4.17118 6.42736 4.12248 6.37498C3.83061 6.08089 3.66537 5.6843 3.66206 5.26998C3.65844 5.06315 3.69603 4.85767 3.77265 4.66552C3.84926 4.47338 3.96337 4.2984 4.10831 4.15081C4.25434 4.00475 4.42771 3.88888 4.61852 3.80982C4.80933 3.73077 5.01385 3.69008 5.22039 3.69008C5.42693 3.69008 5.63145 3.73077 5.82227 3.80982C6.01308 3.88888 6.18645 4.00475 6.33248 4.15081C6.38348 4.19933 6.44609 4.23394 6.51431 4.2513C6.58253 4.26867 6.65407 4.26821 6.72206 4.24998C6.78404 4.21603 6.83658 4.16716 6.87492 4.1078C6.91327 4.04843 6.9362 3.98044 6.94164 3.90998C6.94144 3.49199 7.10403 3.09035 7.39493 2.79019C7.68583 2.49003 8.08218 2.31495 8.49998 2.30206C8.70648 2.30392 8.9106 2.34643 9.10068 2.42717C9.29075 2.50791 9.46307 2.6253 9.60777 2.77264C9.75248 2.91997 9.86675 3.09437 9.94405 3.28587C10.0214 3.47737 10.0602 3.68222 10.0583 3.88873C10.061 3.95354 10.0808 4.0165 10.1156 4.07123C10.1504 4.12595 10.1991 4.17051 10.2566 4.2004C10.3192 4.22335 10.3869 4.22822 10.452 4.21443C10.5172 4.20065 10.5771 4.16878 10.625 4.12248C10.9191 3.83062 11.3157 3.66537 11.73 3.66206C11.9372 3.65557 12.1435 3.69184 12.336 3.76862C12.5286 3.8454 12.7033 3.96104 12.8491 4.10831C12.9952 4.25434 13.1111 4.42771 13.1901 4.61852C13.2692 4.80934 13.3099 5.01385 13.3099 5.2204C13.3099 5.42694 13.2692 5.63146 13.1901 5.82227C13.1111 6.01308 12.9952 6.18645 12.8491 6.33248C12.8043 6.38553 12.7736 6.44909 12.76 6.51723C12.7463 6.58536 12.7502 6.65584 12.7712 6.72206C12.8052 6.78405 12.854 6.83659 12.9134 6.87493C12.9728 6.91327 13.0408 6.9362 13.1112 6.94165C13.5255 6.94693 13.9218 7.11194 14.2174 7.40227C14.513 7.6926 14.6852 8.08584 14.6979 8.49998C14.696 8.70649 14.6535 8.9106 14.5728 9.10068C14.492 9.29076 14.3747 9.46307 14.2273 9.60777C14.08 9.75248 13.9056 9.86675 13.7141 9.94405C13.5226 10.0214 13.3177 10.0602 13.1112 10.0583C13.0464 10.061 12.9835 10.0808 12.9287 10.1156C12.874 10.1504 12.8294 10.1991 12.7996 10.2566C12.7766 10.3192 12.7717 10.3869 12.7855 10.452C12.7993 10.5172 12.8312 10.5771 12.8775 10.625C13.1693 10.9191 13.3346 11.3157 13.3379 11.73C13.3415 11.9368 13.3039 12.1423 13.2273 12.3344C13.1507 12.5266 13.0366 12.7016 12.8916 12.8491C12.7456 12.9952 12.5722 13.1111 12.3814 13.1901C12.1906 13.2692 11.9861 13.3099 11.7796 13.3099C11.573 13.3099 11.3685 13.2692 11.1777 13.1901C10.9869 13.1111 10.8135 12.9952 10.6675 12.8491C10.6196 12.8028 10.5597 12.771 10.4945 12.7572C10.4294 12.7434 10.3617 12.7483 10.2991 12.7712C10.2394 12.8057 10.1896 12.8553 10.1548 12.9149C10.12 12.9745 10.1014 13.0422 10.1008 13.1112C10.0955 13.5255 9.93052 13.9218 9.64019 14.2174C9.34986 14.513 8.95662 14.6852 8.54248 14.6979ZM6.62289 11.7158C6.81076 11.7136 6.99687 11.7523 7.16831 11.8291C7.42131 11.9346 7.63829 12.1112 7.79293 12.3375C7.94758 12.5638 8.03325 12.8301 8.03956 13.1041C8.0376 13.2408 8.08908 13.3728 8.18302 13.472C8.27696 13.5712 8.40594 13.6299 8.54248 13.6354C8.67899 13.6246 8.80626 13.5622 8.89838 13.4609C8.9905 13.3595 9.04054 13.2269 9.03831 13.09C9.03999 12.815 9.11935 12.5461 9.26723 12.3142C9.41511 12.0824 9.6255 11.897 9.87414 11.7796C10.1328 11.672 10.4176 11.6435 10.6924 11.6977C10.9673 11.7519 11.2199 11.8864 11.4183 12.0841C11.4648 12.1307 11.52 12.1675 11.5808 12.1927C11.6416 12.2179 11.7067 12.2308 11.7725 12.2308C11.8383 12.2308 11.9034 12.2179 11.9642 12.1927C12.0249 12.1675 12.0801 12.1307 12.1266 12.0841C12.1732 12.0376 12.21 11.9824 12.2352 11.9217C12.2604 11.8609 12.2733 11.7958 12.2733 11.73C12.2733 11.6642 12.2604 11.5991 12.2352 11.5383C12.21 11.4775 12.1732 11.4223 12.1266 11.3758C11.9301 11.1766 11.7969 10.9236 11.744 10.6488C11.691 10.374 11.7207 10.0896 11.8291 9.83165C11.9409 9.58309 12.1219 9.37204 12.3506 9.22379C12.5792 9.07554 12.8458 8.99638 13.1183 8.99581C13.2531 8.99777 13.3833 8.94704 13.4812 8.85443C13.5791 8.76181 13.637 8.63464 13.6425 8.49998C13.6334 8.36283 13.5715 8.23454 13.4698 8.14208C13.368 8.04962 13.2345 8.00018 13.0971 8.00415C12.8198 7.99661 12.5501 7.91169 12.3186 7.75899C12.087 7.60628 11.9028 7.39188 11.7866 7.13998C11.6806 6.87871 11.653 6.59222 11.7071 6.31549C11.7612 6.03877 11.8946 5.78378 12.0912 5.58165C12.1377 5.53514 12.1746 5.47992 12.1998 5.41915C12.225 5.35839 12.2379 5.29325 12.2379 5.22748C12.2379 5.1617 12.225 5.09657 12.1998 5.03581C12.1746 4.97504 12.1377 4.91982 12.0912 4.87331C12.0447 4.8268 11.9895 4.78991 11.9287 4.76474C11.868 4.73957 11.8028 4.72661 11.7371 4.72661C11.6713 4.72661 11.6062 4.73957 11.5454 4.76474C11.4846 4.78991 11.4294 4.8268 11.3829 4.87331C11.1837 5.05828 10.9356 5.18205 10.668 5.22987C10.4005 5.27769 10.1248 5.24753 9.87393 5.14299C9.62304 5.03846 9.40752 4.86395 9.25308 4.6403C9.09863 4.41665 9.01179 4.1533 9.00289 3.88165C9.00485 3.74689 8.95412 3.61669 8.86151 3.51879C8.7689 3.42088 8.64172 3.363 8.50706 3.35748C8.36991 3.36659 8.24162 3.4285 8.14916 3.53021C8.0567 3.63191 8.00726 3.7655 8.01123 3.9029C8.00369 4.18017 7.91877 4.44981 7.76607 4.68137C7.61336 4.91293 7.39896 5.09718 7.14706 5.21331C6.88579 5.31932 6.5993 5.34697 6.32257 5.29288C6.04585 5.2388 5.79086 5.10531 5.58873 4.90873C5.54222 4.86222 5.487 4.82533 5.42623 4.80016C5.36547 4.77498 5.30033 4.76203 5.23456 4.76203C5.16879 4.76203 5.10365 4.77498 5.04289 4.80016C4.98212 4.82533 4.9269 4.86222 4.88039 4.90873C4.83388 4.95524 4.79699 5.01045 4.77182 5.07122C4.74665 5.13199 4.73369 5.19712 4.73369 5.2629C4.73369 5.32867 4.74665 5.3938 4.77182 5.45457C4.79699 5.51534 4.83388 5.57055 4.88039 5.61706C5.07578 5.81706 5.20762 6.07041 5.2593 6.34519C5.31098 6.61998 5.28019 6.90391 5.17081 7.16123C5.06535 7.41423 4.88877 7.63121 4.66246 7.78585C4.43615 7.9405 4.16984 8.02617 3.89581 8.03248C3.75918 8.03052 3.62718 8.082 3.52795 8.17594C3.42871 8.26988 3.37009 8.39886 3.36456 8.5354C3.37535 8.67191 3.43777 8.79918 3.5391 8.8913C3.64043 8.98342 3.77305 9.03346 3.90998 9.03123C4.18497 9.03291 4.45389 9.11227 4.68573 9.26015C4.91758 9.40803 5.10292 9.61842 5.22039 9.86706C5.32799 10.1257 5.35649 10.4105 5.30228 10.6853C5.24806 10.9602 5.11357 11.2128 4.91581 11.4112C4.8693 11.4577 4.83241 11.513 4.80724 11.5737C4.78206 11.6345 4.76911 11.6996 4.76911 11.7654C4.76911 11.8312 4.78206 11.8963 4.80724 11.9571C4.83241 12.0178 4.8693 12.0731 4.91581 12.1196C4.96232 12.1661 5.01753 12.203 5.0783 12.2281C5.13907 12.2533 5.2042 12.2663 5.26998 12.2663C5.33575 12.2663 5.40088 12.2533 5.46165 12.2281C5.52242 12.203 5.57763 12.1661 5.62414 12.1196C5.89337 11.8625 6.25066 11.7181 6.62289 11.7158Z" fill="#737E97"/>
</svg>
