<svg width="23" height="23" viewBox="0 0 23 23" fill="none" xmlns="http://www.w3.org/2000/svg">
<circle cx="11.5" cy="11.5" r="11.5" fill="#535D71"/>
<path d="M17.7332 16.3047C16.9298 14.8947 15.6754 13.7961 14.1719 13.1857C14.9196 12.625 15.4719 11.8431 15.7506 10.951C16.0292 10.0589 16.0202 9.1017 15.7246 8.21503C15.429 7.32836 14.862 6.55716 14.1038 6.01067C13.3456 5.46418 12.4346 5.1701 11.5 5.1701C10.5654 5.1701 9.65441 5.46418 8.8962 6.01067C8.13799 6.55716 7.57094 7.32836 7.27538 8.21503C6.97983 9.1017 6.97074 10.0589 7.24942 10.951C7.5281 11.8431 8.08041 12.625 8.82811 13.1857C7.32455 13.7961 6.07013 14.8947 5.26678 16.3047C5.21701 16.3847 5.18383 16.4739 5.16923 16.5671C5.15462 16.6602 5.15889 16.7553 5.18178 16.8467C5.20466 16.9382 5.2457 17.0241 5.30245 17.0993C5.3592 17.1746 5.4305 17.2377 5.51211 17.2848C5.59373 17.332 5.68399 17.3622 5.77753 17.3738C5.87108 17.3854 5.96599 17.378 6.05664 17.3522C6.14728 17.3263 6.23181 17.2825 6.30519 17.2234C6.37856 17.1642 6.4393 17.0909 6.48378 17.0078C7.5455 15.1726 9.4205 14.0781 11.5 14.0781C13.5795 14.0781 15.4545 15.1732 16.5162 17.0078C16.6126 17.1628 16.7655 17.2742 16.9426 17.3186C17.1196 17.3629 17.307 17.3366 17.465 17.2453C17.6231 17.154 17.7394 17.0048 17.7895 16.8293C17.8395 16.6537 17.8193 16.4656 17.7332 16.3047ZM8.45311 9.62499C8.45311 9.02237 8.63181 8.43329 8.9666 7.93224C9.3014 7.43118 9.77726 7.04065 10.334 6.81004C10.8907 6.57943 11.5034 6.51909 12.0944 6.63666C12.6854 6.75422 13.2283 7.04441 13.6545 7.47052C14.0806 7.89664 14.3708 8.43954 14.4883 9.03057C14.6059 9.62161 14.5455 10.2342 14.3149 10.791C14.0843 11.3477 13.6938 11.8236 13.1927 12.1584C12.6917 12.4932 12.1026 12.6719 11.5 12.6719C10.6922 12.6709 9.91775 12.3496 9.34655 11.7784C8.77535 11.2072 8.45404 10.4328 8.45311 9.62499Z" fill="white"/>
</svg>
